<svg width="94" height="94" viewBox="0 0 94 94" fill="none" xmlns="http://www.w3.org/2000/svg">
<rect width="94" height="94" rx="8" fill="#7D40E7"/>
<path d="M42.6617 46.9478C42.6598 47.5551 42.7845 48.1561 43.0278 48.7126C43.2711 49.269 43.6277 49.7687 44.0748 50.1797C44.5219 50.5907 45.0498 50.904 45.6247 51.0996C46.1997 51.2952 46.8091 51.3689 47.4141 51.3159C48.0191 51.263 48.6064 51.0845 49.1386 50.7919C49.6708 50.4993 50.1362 50.0991 50.5051 49.6166C50.874 49.1342 51.1383 48.5802 51.2812 47.9899C51.4241 47.3996 51.4424 46.786 51.335 46.1883L69.0296 43.0693C69.3424 43.0157 69.6404 42.8972 69.9046 42.7216C70.1688 42.5458 70.3933 42.3167 70.5636 42.049C70.7339 41.7813 70.8463 41.4808 70.8935 41.167C70.9407 40.8533 70.9217 40.5331 70.8376 40.2271C69.6878 36.1594 67.5132 32.4548 64.522 29.4681C61.5307 26.4813 57.8229 24.3123 53.7535 23.1686C53.4496 23.0844 53.1315 23.0643 52.8193 23.1098C52.5073 23.1552 52.208 23.265 51.9407 23.4324C51.6734 23.5997 51.4438 23.8209 51.2666 24.0817C51.0894 24.3426 50.9684 24.6375 50.9113 24.9477L47.7923 42.6423C47.1631 42.5276 46.5164 42.553 45.8982 42.7168C45.28 42.8806 44.7054 43.1786 44.2155 43.5898C43.7256 44.0009 43.3324 44.5149 43.0638 45.0954C42.7952 45.6758 42.658 46.3083 42.6617 46.9478Z" fill="white"/>
<path d="M47.0328 71.0355C52.9923 71.0435 58.7425 68.8383 63.1683 64.8474C67.5942 60.8565 70.3803 55.3642 70.9866 49.4357C71.0213 49.1212 70.9884 48.803 70.8902 48.5022C70.792 48.2015 70.6308 47.9251 70.4173 47.6916C70.2057 47.4564 69.947 47.2682 69.6581 47.1392C69.3691 47.0102 69.0563 46.9433 68.7399 46.9427C68.6057 46.9431 68.4717 46.9552 68.3396 46.9789C67.8474 47.0688 67.3985 47.3186 67.0628 47.6897C66.727 48.0607 66.5231 48.5322 66.4827 49.031C66.0963 52.7086 64.6763 56.2017 62.3869 59.1058C60.0976 62.0098 57.0326 64.2062 53.5468 65.4404C50.0609 66.6748 46.2968 66.8965 42.6901 66.0802C39.0834 65.2638 35.7817 63.4427 33.1672 60.8276C30.5526 58.2125 28.7321 54.9104 27.9165 51.3035C27.1009 47.6967 27.3235 43.9326 28.5585 40.447C29.7935 36.9614 31.9905 33.8969 34.895 31.6081C37.7996 29.3195 41.293 27.9001 44.9707 27.5145C45.5479 27.4604 46.0823 27.1866 46.4636 26.7498C46.8449 26.313 47.0439 25.7465 47.0195 25.1673C46.9952 24.588 46.7494 24.0402 46.3329 23.6369C45.9164 23.2336 45.3609 23.0056 44.7811 23H44.5454C38.416 23.6505 32.7692 26.6259 28.7673 31.3139C24.7654 36.0018 22.713 42.0455 23.0324 48.2011C23.3518 54.3566 26.0189 60.1554 30.4845 64.4039C34.9502 68.6525 40.8746 71.0275 47.0384 71.04L47.0328 71.0355Z" fill="white"/>
<path d="M43.7595 37.5795C44.1303 37.4454 44.4587 37.2151 44.7111 36.9122C44.9636 36.6094 45.131 36.2448 45.1961 35.856C45.2522 35.5278 45.2352 35.1913 45.1465 34.8703C45.0579 34.5494 44.8996 34.2519 44.683 33.999C44.4749 33.7471 44.214 33.5439 43.9188 33.4038C43.6236 33.2637 43.3012 33.1902 42.9744 33.1885C42.7265 33.1882 42.4803 33.2297 42.2461 33.3113C39.9371 34.1193 37.8709 35.5002 36.241 37.3245C34.6112 39.1488 33.471 41.3568 32.9271 43.742C32.3833 46.1271 32.4537 48.6112 33.1317 50.9617C33.8097 53.3122 35.0731 55.4522 36.8037 57.1813C38.5342 58.9104 40.6752 60.172 43.0263 60.848C45.3774 61.524 47.8616 61.5923 50.2463 61.0465C52.6309 60.5006 54.838 59.3585 56.6609 57.7271C58.4839 56.0957 59.8629 54.0284 60.669 51.7187C60.7863 51.3866 60.8214 51.0311 60.7713 50.6826C60.7213 50.334 60.5876 50.0028 60.3816 49.7172C60.1719 49.4206 59.8944 49.1784 59.5724 49.0107C59.2503 48.8429 58.8928 48.7544 58.5296 48.7525C58.3954 48.753 58.2615 48.765 58.1293 48.7886C57.7405 48.8538 57.376 49.0212 57.0731 49.2737C56.7702 49.5261 56.5399 49.8545 56.4058 50.2253C55.8518 51.8115 54.9042 53.2312 53.6519 54.3513C52.3995 55.4714 50.8834 56.2554 49.2454 56.6297C47.6075 57.0041 45.9013 56.9566 44.2867 56.4917C42.6721 56.0269 41.2019 55.1598 40.0138 53.9717C38.8257 52.7837 37.9586 51.3135 37.4936 49.6989C37.0286 48.0844 36.9811 46.3782 37.3554 44.7402C37.7297 43.1022 38.5135 41.5861 39.6336 40.3337C40.7537 39.0813 42.1733 38.1337 43.7595 37.5795Z" fill="white"/>
</svg>
