<svg width="239" height="60" viewBox="0 0 239 60" fill="none" xmlns="http://www.w3.org/2000/svg">
<path d="M77.1846 42.8792V15.344H84.957C87.3528 15.344 89.4705 15.8735 91.3116 16.9326C93.152 17.9916 94.5706 19.4982 95.5665 21.4524C96.5756 23.4067 97.086 25.6508 97.0984 28.1849V29.9437C97.0984 32.5409 96.5943 34.8166 95.5859 36.7708C94.5892 38.725 93.1583 40.2253 91.293 41.2717C89.4394 42.3182 87.2774 42.854 84.8062 42.8792H77.1846ZM80.8156 18.332V39.9101H84.6361C87.4344 39.9101 89.6096 39.0402 91.1602 37.3003C92.7239 35.5605 93.5055 33.083 93.5055 29.8681V28.2606C93.5055 25.1339 92.7675 22.7069 91.293 20.9796C89.8302 19.2398 87.7498 18.3573 85.0518 18.332H80.8156ZM110.544 43.2575C107.771 43.2575 105.514 42.3497 103.774 40.5342C102.035 38.706 101.164 36.2665 101.164 33.2154V32.5725C101.164 30.5426 101.549 28.7334 102.318 27.1448C103.1 25.5436 104.184 24.2955 105.571 23.4003C106.971 22.4926 108.483 22.0387 110.11 22.0387C112.77 22.0387 114.837 22.9149 116.312 24.6674C117.788 26.4199 118.526 28.9288 118.526 32.1942V33.6504H104.663C104.713 35.6676 105.3 37.3003 106.422 38.5485C107.556 39.784 108.994 40.4018 110.734 40.4018C111.969 40.4018 113.015 40.1497 113.873 39.6453C114.731 39.1411 115.48 38.4728 116.124 37.6407L118.261 39.3049C116.546 41.9399 113.974 43.2575 110.544 43.2575ZM110.11 24.9132C108.698 24.9132 107.512 25.4301 106.554 26.464C105.596 27.4852 105.004 28.9225 104.777 30.7758H115.027V30.5111C114.926 28.7334 114.446 27.3592 113.589 26.3883C112.732 25.405 111.572 24.9132 110.11 24.9132ZM129.078 38.1324L134.146 22.417H137.72L130.383 42.8792H127.717L120.303 22.417H123.877L129.078 38.1324ZM151.734 31.7403H145.266V42.8792H141.616V15.344H150.732C153.833 15.344 156.216 16.05 157.88 17.4621C159.557 18.8742 160.396 20.9292 160.396 23.6273C160.396 25.3419 159.929 26.8359 158.996 28.1093C158.075 29.3827 156.79 30.3346 155.138 30.9649L161.606 42.6523V42.8792H157.71L151.734 31.7403ZM145.266 28.7712H150.845C152.648 28.7712 154.079 28.3047 155.138 27.3717C156.21 26.4388 156.745 25.1906 156.745 23.6273C156.745 21.9252 156.235 20.6203 155.213 19.7126C154.205 18.8048 152.742 18.3446 150.826 18.332H145.266V28.7712ZM177.586 42.8792C177.384 42.4758 177.22 41.7571 177.094 40.7233C175.468 42.4127 173.526 43.2575 171.269 43.2575C169.253 43.2575 167.594 42.6901 166.296 41.5554C165.009 40.4081 164.367 38.9582 164.367 37.2058C164.367 35.075 165.173 33.4234 166.788 32.2509C168.414 31.0658 170.696 30.4732 173.633 30.4732H177.037V28.8658C177.037 27.6429 176.672 26.672 175.941 25.9534C175.21 25.2222 174.131 24.8565 172.707 24.8565C171.459 24.8565 170.412 25.1717 169.567 25.8021C168.723 26.4325 168.3 27.1952 168.3 28.0904H164.783C164.783 27.0692 165.142 26.0858 165.861 25.1402C166.592 24.182 167.575 23.4256 168.811 22.8708C170.059 22.3161 171.427 22.0387 172.915 22.0387C175.272 22.0387 177.12 22.6313 178.456 23.8164C179.792 24.9889 180.486 26.609 180.536 28.6766V38.0946C180.536 39.9732 180.776 41.4671 181.255 42.5766V42.8792H177.586ZM171.78 40.2127C172.877 40.2127 173.917 39.929 174.9 39.3617C175.884 38.7944 176.596 38.0567 177.037 37.149V32.9506H174.295C170.009 32.9506 167.865 34.2051 167.865 36.714C167.865 37.8109 168.231 38.6683 168.962 39.286C169.694 39.9038 170.633 40.2127 171.78 40.2127ZM185.17 32.4778C185.17 29.3386 185.913 26.817 187.401 24.9132C188.889 22.9969 190.837 22.0387 193.245 22.0387C195.64 22.0387 197.538 22.8582 198.937 24.4972V13.8311H202.436V42.8792H199.221L199.05 40.6855C197.651 42.4001 195.703 43.2575 193.207 43.2575C190.837 43.2575 188.902 42.2866 187.401 40.345C185.913 38.4035 185.17 35.8694 185.17 32.7427V32.4778ZM188.668 32.875C188.668 35.1948 189.147 37.0103 190.106 38.3216C191.064 39.6327 192.387 40.2883 194.077 40.2883C196.296 40.2883 197.916 39.2923 198.937 37.3003V27.9013C197.891 25.9723 196.283 25.0078 194.115 25.0078C192.4 25.0078 191.064 25.6697 190.106 26.9935C189.147 28.3173 188.668 30.2778 188.668 32.875ZM220.515 42.8792C220.314 42.4758 220.15 41.7571 220.023 40.7233C218.397 42.4127 216.456 43.2575 214.199 43.2575C212.182 43.2575 210.524 42.6901 209.225 41.5554C207.939 40.4081 207.296 38.9582 207.296 37.2058C207.296 35.075 208.103 33.4234 209.717 32.2509C211.343 31.0658 213.625 30.4732 216.563 30.4732H219.966V28.8658C219.966 27.6429 219.601 26.672 218.87 25.9534C218.139 25.2222 217.061 24.8565 215.636 24.8565C214.388 24.8565 213.341 25.1717 212.497 25.8021C211.652 26.4325 211.23 27.1952 211.23 28.0904H207.712C207.712 27.0692 208.071 26.0858 208.79 25.1402C209.522 24.182 210.504 23.4256 211.74 22.8708C212.989 22.3161 214.356 22.0387 215.844 22.0387C218.201 22.0387 220.049 22.6313 221.385 23.8164C222.721 24.9889 223.415 26.609 223.465 28.6766V38.0946C223.465 39.9732 223.705 41.4671 224.184 42.5766V42.8792H220.515ZM214.709 40.2127C215.806 40.2127 216.847 39.929 217.83 39.3617C218.813 38.7944 219.525 38.0567 219.966 37.149V32.9506H217.225C212.938 32.9506 210.795 34.2051 210.795 36.714C210.795 37.8109 211.16 38.6683 211.892 39.286C212.623 39.9038 213.562 40.2127 214.709 40.2127ZM238.84 25.5562C238.311 25.468 237.737 25.4239 237.119 25.4239C234.825 25.4239 233.268 26.401 232.448 28.3552V42.8792H228.95V22.417H232.354L232.411 24.7809C233.558 22.9528 235.184 22.0387 237.29 22.0387C237.971 22.0387 238.487 22.127 238.84 22.3035V25.5562Z" fill="#211F26"/>
<path d="M24.4586 29.7903C24.4562 30.5459 24.6113 31.2935 24.914 31.9858C25.2167 32.6779 25.6602 33.2995 26.2164 33.8107C26.7727 34.322 27.4293 34.7117 28.1445 34.9551C28.8597 35.1984 29.6178 35.2901 30.3704 35.2242C31.1231 35.1583 31.8536 34.9363 32.5157 34.5724C33.1777 34.2084 33.7566 33.7105 34.2155 33.1103C34.6745 32.5101 35.0033 31.821 35.181 31.0867C35.3588 30.3524 35.3815 29.5891 35.2479 28.8456L57.2595 24.9656C57.6486 24.899 58.0193 24.7516 58.348 24.533C58.6767 24.3144 58.9559 24.0295 59.1678 23.6964C59.3796 23.3634 59.5195 22.9896 59.5781 22.5993C59.6368 22.209 59.6132 21.8107 59.5086 21.43C58.0783 16.3699 55.3732 11.7616 51.6521 8.04609C47.9311 4.33066 43.3187 1.63244 38.2564 0.209692C37.8784 0.104945 37.4827 0.0800292 37.0944 0.136529C36.7062 0.193029 36.3339 0.329708 36.0014 0.537873C35.6689 0.74604 35.3833 1.02113 35.1628 1.34566C34.9424 1.67018 34.7918 2.03704 34.7209 2.42288L30.8409 24.4344C30.0582 24.2918 29.2537 24.3234 28.4847 24.5272C27.7156 24.7308 27.0009 25.1016 26.3915 25.6131C25.7821 26.1245 25.293 26.7639 24.9588 27.486C24.6247 28.208 24.454 28.9948 24.4586 29.7903Z" fill="#7D40E7"/>
<path d="M29.8961 59.7547C37.3096 59.7648 44.4626 57.0215 49.9682 52.057C55.4738 47.0924 58.9398 40.2602 59.694 32.8853C59.7371 32.494 59.6961 32.0981 59.5741 31.724C59.4519 31.3499 59.2513 31.0061 58.9858 30.7157C58.7225 30.423 58.4006 30.189 58.0413 30.0285C57.6818 29.868 57.2927 29.7847 56.8991 29.784C56.7321 29.7845 56.5655 29.7995 56.4012 29.829C55.7888 29.9408 55.2305 30.2516 54.8128 30.7132C54.3951 31.1748 54.1414 31.7613 54.0912 32.3818C53.6105 36.9566 51.8441 41.302 48.9962 44.9145C46.1484 48.5271 42.3356 51.2593 37.9993 52.7947C33.663 54.3301 28.9805 54.606 24.494 53.5905C20.0073 52.575 15.9001 50.3096 12.6476 47.0565C9.39522 43.8034 7.13057 39.6956 6.11601 35.2088C5.10142 30.722 5.37831 26.0395 6.91465 21.7036C8.45095 17.3676 11.1839 13.5554 14.7971 10.7083C18.4102 7.86122 22.7559 6.09563 27.3309 5.61597C28.049 5.54856 28.7137 5.20804 29.1881 4.66467C29.6623 4.12131 29.9099 3.4166 29.8796 2.696C29.8494 1.9754 29.5436 1.29393 29.0255 0.792244C28.5073 0.290559 27.8163 0.00696476 27.0951 0H26.8018C19.177 0.809147 12.1526 4.51051 7.17435 10.3422C2.19614 16.1739 -0.357071 23.6921 0.0402988 31.3494C0.437669 39.0067 3.75538 46.2202 9.3105 51.5053C14.8657 56.7904 22.2355 59.7448 29.9031 59.7603L29.8961 59.7547Z" fill="#7D40E7"/>
<path d="M25.8245 18.1365C26.2857 17.9697 26.6943 17.6831 27.0083 17.3064C27.3223 16.9297 27.5306 16.4762 27.6116 15.9925C27.6814 15.5842 27.6603 15.1656 27.5499 14.7664C27.4396 14.3671 27.2427 13.9971 26.9733 13.6825C26.7145 13.3691 26.39 13.1163 26.0227 12.9421C25.6555 12.7678 25.2544 12.6764 24.8479 12.6741C24.5395 12.6738 24.2332 12.7255 23.9419 12.8269C21.0695 13.8321 18.4992 15.5498 16.4717 17.8193C14.4443 20.0886 13.0259 22.8354 12.3493 25.8024C11.6729 28.7694 11.7604 31.8596 12.6039 34.7836C13.4472 37.7075 15.0189 40.3696 17.1717 42.5205C19.3244 44.6715 21.9878 46.2408 24.9124 47.0818C27.8371 47.9227 30.9274 48.0077 33.8938 47.3287C36.8603 46.6497 39.6059 45.2289 41.8735 43.1995C44.1412 41.1701 45.8567 38.5984 46.8595 35.7252C47.0053 35.3121 47.0491 34.8699 46.9867 34.4363C46.9245 34.0027 46.7582 33.5907 46.5019 33.2354C46.241 32.8665 45.8959 32.5652 45.4953 32.3565C45.0946 32.1478 44.6499 32.0377 44.1981 32.0353C44.0312 32.036 43.8645 32.051 43.7001 32.0803C43.2164 32.1614 42.763 32.3697 42.3862 32.6837C42.0095 32.9977 41.723 33.4063 41.5561 33.8674C40.8669 35.8407 39.6882 37.6067 38.1303 39.0001C36.5724 40.3935 34.6864 41.3687 32.6488 41.8344C30.6113 42.3001 28.4888 42.2411 26.4803 41.6627C24.4718 41.0845 22.6429 40.0058 21.165 38.5279C19.687 37.05 18.6083 35.2212 18.0299 33.2127C17.4515 31.2042 17.3924 29.0818 17.858 27.0442C18.3236 25.0066 19.2987 23.1205 20.692 21.5626C22.0854 20.0046 23.8513 18.8258 25.8245 18.1365Z" fill="#7D40E7"/>
</svg>
